<mxfile host="app.diagrams.net" modified="2023-12-11T07:31:19.249Z" agent="Mozilla/5.0 (Windows NT 6.1; Win64; x64; rv:109.0) Gecko/20100101 Firefox/115.0" version="22.1.7" etag="NGaCNQz38D4W29rTXgbF" type="github">
  <diagram name="Страница — 1" id="pAg4jtTioVge83QlBJV_">
    <mxGraphModel>
      <root>
        <mxCell id="0" />
        <mxCell id="1" parent="0" />
      </root>
    </mxGraphModel>
  </diagram>
</mxfile>
